<svg xmlns="http://www.w3.org/2000/svg" viewBox="0 0 40 40" shape-rendering="crispEdges"><rect width="40" height="40" fill="#7d838c"/><rect x="4" y="9" width="12" height="1" fill="#2b2f36"/><rect x="4" y="10" width="1" height="1" fill="#2b2f36"/><rect x="5" y="10" width="10" height="1" fill="#0d1b2e"/><rect x="15" y="10" width="1" height="1" fill="#2b2f36"/><rect x="4" y="11" width="1" height="1" fill="#2b2f36"/><rect x="5" y="11" width="10" height="1" fill="#0d1b2e"/><rect x="15" y="11" width="1" height="1" fill="#2b2f36"/><rect x="4" y="12" width="1" height="1" fill="#2b2f36"/><rect x="5" y="12" width="7" height="1" fill="#0d1b2e"/><rect x="12" y="12" width="1" height="1" fill="#43d17c"/><rect x="13" y="12" width="2" height="1" fill="#0d1b2e"/><rect x="15" y="12" width="1" height="1" fill="#2b2f36"/><rect x="17" y="12" width="9" height="1" fill="#2b2f36"/><rect x="4" y="13" width="1" height="1" fill="#2b2f36"/><rect x="5" y="13" width="6" height="1" fill="#0d1b2e"/><rect x="11" y="13" width="2" height="1" fill="#43d17c"/><rect x="13" y="13" width="2" height="1" fill="#0d1b2e"/><rect x="15" y="13" width="1" height="1" fill="#2b2f36"/><rect x="17" y="13" width="1" height="1" fill="#2b2f36"/><rect x="18" y="13" width="7" height="1" fill="#0d1b2e"/><rect x="25" y="13" width="1" height="1" fill="#2b2f36"/><rect x="4" y="14" width="1" height="1" fill="#2b2f36"/><rect x="5" y="14" width="5" height="1" fill="#0d1b2e"/><rect x="10" y="14" width="1" height="1" fill="#43d17c"/><rect x="11" y="14" width="4" height="1" fill="#0d1b2e"/><rect x="15" y="14" width="1" height="1" fill="#2b2f36"/><rect x="17" y="14" width="1" height="1" fill="#2b2f36"/><rect x="18" y="14" width="7" height="1" fill="#0d1b2e"/><rect x="25" y="14" width="1" height="1" fill="#2b2f36"/><rect x="4" y="15" width="1" height="1" fill="#2b2f36"/><rect x="5" y="15" width="4" height="1" fill="#0d1b2e"/><rect x="9" y="15" width="1" height="1" fill="#43d17c"/><rect x="10" y="15" width="5" height="1" fill="#0d1b2e"/><rect x="15" y="15" width="1" height="1" fill="#2b2f36"/><rect x="17" y="15" width="1" height="1" fill="#2b2f36"/><rect x="18" y="15" width="4" height="1" fill="#0d1b2e"/><rect x="22" y="15" width="1" height="1" fill="#43d17c"/><rect x="23" y="15" width="1" height="1" fill="#0d1b2e"/><rect x="24" y="15" width="1" height="1" fill="#ffe98a"/><rect x="25" y="15" width="5" height="1" fill="#f2c53d"/><rect x="30" y="15" width="1" height="1" fill="#ffe98a"/><rect x="4" y="16" width="1" height="1" fill="#2b2f36"/><rect x="5" y="16" width="3" height="1" fill="#0d1b2e"/><rect x="8" y="16" width="2" height="1" fill="#43d17c"/><rect x="10" y="16" width="5" height="1" fill="#0d1b2e"/><rect x="15" y="16" width="1" height="1" fill="#2b2f36"/><rect x="17" y="16" width="1" height="1" fill="#2b2f36"/><rect x="18" y="16" width="3" height="1" fill="#0d1b2e"/><rect x="21" y="16" width="2" height="1" fill="#43d17c"/><rect x="23" y="16" width="1" height="1" fill="#0d1b2e"/><rect x="24" y="16" width="1" height="1" fill="#f2c53d"/><rect x="25" y="16" width="1" height="1" fill="#1c2620"/><rect x="26" y="16" width="1" height="1" fill="#43d17c"/><rect x="27" y="16" width="1" height="1" fill="#1c2620"/><rect x="28" y="16" width="2" height="1" fill="#43d17c"/><rect x="30" y="16" width="1" height="1" fill="#f2c53d"/><rect x="4" y="17" width="1" height="1" fill="#2b2f36"/><rect x="5" y="17" width="1" height="1" fill="#0d1b2e"/><rect x="6" y="17" width="2" height="1" fill="#43d17c"/><rect x="8" y="17" width="7" height="1" fill="#0d1b2e"/><rect x="15" y="17" width="1" height="1" fill="#2b2f36"/><rect x="17" y="17" width="1" height="1" fill="#2b2f36"/><rect x="18" y="17" width="1" height="1" fill="#0d1b2e"/><rect x="19" y="17" width="2" height="1" fill="#43d17c"/><rect x="21" y="17" width="3" height="1" fill="#0d1b2e"/><rect x="24" y="17" width="1" height="1" fill="#f2c53d"/><rect x="25" y="17" width="5" height="1" fill="#1c2620"/><rect x="30" y="17" width="1" height="1" fill="#f2c53d"/><rect x="4" y="18" width="1" height="1" fill="#2b2f36"/><rect x="5" y="18" width="10" height="1" fill="#0d1b2e"/><rect x="15" y="18" width="1" height="1" fill="#2b2f36"/><rect x="17" y="18" width="1" height="1" fill="#2b2f36"/><rect x="18" y="18" width="6" height="1" fill="#0d1b2e"/><rect x="24" y="18" width="7" height="1" fill="#f2c53d"/><rect x="32" y="18" width="1" height="1" fill="#3f9d5a"/><rect x="33" y="18" width="1" height="1" fill="#5d4634"/><rect x="34" y="18" width="1" height="1" fill="#3f9d5a"/><rect x="4" y="19" width="12" height="1" fill="#2b2f36"/><rect x="17" y="19" width="7" height="1" fill="#2b2f36"/><rect x="24" y="19" width="1" height="1" fill="#f2c53d"/><rect x="25" y="19" width="1" height="1" fill="#a67c1a"/><rect x="26" y="19" width="1" height="1" fill="#f2c53d"/><rect x="27" y="19" width="1" height="1" fill="#a67c1a"/><rect x="28" y="19" width="1" height="1" fill="#f2c53d"/><rect x="29" y="19" width="1" height="1" fill="#a67c1a"/><rect x="30" y="19" width="1" height="1" fill="#f2c53d"/><rect x="32" y="19" width="4" height="1" fill="#3f9d5a"/><rect x="9" y="20" width="2" height="1" fill="#2b2f36"/><rect x="20" y="20" width="2" height="1" fill="#2b2f36"/><rect x="24" y="20" width="7" height="1" fill="#f2c53d"/><rect x="32" y="20" width="3" height="1" fill="#3f9d5a"/><rect x="6" y="21" width="8" height="1" fill="#2b2f36"/><rect x="19" y="21" width="5" height="1" fill="#2b2f36"/><rect x="24" y="21" width="7" height="1" fill="#a67c1a"/><rect x="32" y="21" width="3" height="1" fill="#3f9d5a"/><rect x="1" y="22" width="38" height="1" fill="#9a6b45"/><rect x="1" y="23" width="38" height="1" fill="#7d5334"/><rect x="2" y="24" width="36" height="1" fill="#5d3c24"/><rect x="2" y="25" width="36" height="1" fill="#7d5334"/><rect x="0" y="26" width="2" height="1" fill="#1b1d22"/><rect x="2" y="26" width="6" height="1" fill="#7d5334"/><rect x="8" y="26" width="2" height="1" fill="#3f9d5a"/><rect x="10" y="26" width="20" height="1" fill="#7d5334"/><rect x="30" y="26" width="2" height="1" fill="#3f9d5a"/><rect x="32" y="26" width="6" height="1" fill="#7d5334"/><rect x="38" y="26" width="2" height="1" fill="#1b1d22"/><rect x="0" y="27" width="2" height="1" fill="#5f646c"/><rect x="2" y="27" width="36" height="1" fill="#7d5334"/><rect x="38" y="27" width="2" height="1" fill="#5f646c"/><rect x="0" y="28" width="2" height="1" fill="#5f646c"/><rect x="2" y="28" width="36" height="1" fill="#5d3c24"/><rect x="38" y="28" width="2" height="1" fill="#5f646c"/><rect x="0" y="29" width="2" height="1" fill="#5f646c"/><rect x="2" y="29" width="36" height="1" fill="#7d5334"/><rect x="38" y="29" width="2" height="1" fill="#5f646c"/><rect x="0" y="30" width="2" height="1" fill="#5f646c"/><rect x="2" y="30" width="6" height="1" fill="#7d5334"/><rect x="8" y="30" width="2" height="1" fill="#3f9d5a"/><rect x="10" y="30" width="20" height="1" fill="#7d5334"/><rect x="30" y="30" width="2" height="1" fill="#3f9d5a"/><rect x="32" y="30" width="6" height="1" fill="#7d5334"/><rect x="38" y="30" width="2" height="1" fill="#5f646c"/><rect x="0" y="31" width="2" height="1" fill="#5f646c"/><rect x="2" y="31" width="36" height="1" fill="#5d3c24"/><rect x="38" y="31" width="2" height="1" fill="#5f646c"/><rect x="0" y="32" width="3" height="1" fill="#5f646c"/><rect x="3" y="32" width="3" height="1" fill="#5d3c24"/><rect x="6" y="32" width="28" height="1" fill="#5f646c"/><rect x="34" y="32" width="3" height="1" fill="#5d3c24"/><rect x="37" y="32" width="3" height="1" fill="#5f646c"/><rect x="0" y="33" width="3" height="1" fill="#5f646c"/><rect x="3" y="33" width="3" height="1" fill="#5d3c24"/><rect x="6" y="33" width="28" height="1" fill="#5f646c"/><rect x="34" y="33" width="3" height="1" fill="#5d3c24"/><rect x="37" y="33" width="3" height="1" fill="#5f646c"/><rect x="0" y="34" width="3" height="1" fill="#5f646c"/><rect x="3" y="34" width="3" height="1" fill="#5d3c24"/><rect x="6" y="34" width="28" height="1" fill="#5f646c"/><rect x="34" y="34" width="3" height="1" fill="#5d3c24"/><rect x="37" y="34" width="3" height="1" fill="#5f646c"/><rect x="0" y="35" width="40" height="1" fill="#5f646c"/><rect x="0" y="36" width="40" height="1" fill="#5f646c"/><rect x="0" y="37" width="40" height="1" fill="#5f646c"/><rect x="0" y="38" width="40" height="1" fill="#5f646c"/><rect x="0" y="39" width="40" height="1" fill="#5f646c"/><rect x="13" y="11" width="1" height="1" fill="#43d17c"><animate attributeName="opacity" values="1;0.2;1" dur="1.2s" begin="0s" repeatCount="indefinite"/></rect><rect x="23" y="14" width="1" height="1" fill="#43d17c"><animate attributeName="opacity" values="1;0.2;1" dur="1.2s" begin="0s" repeatCount="indefinite"/></rect><rect x="33" y="17" width="1" height="1" fill="#c9cfd8"><animate attributeName="y" values="17;15;13" dur="2.8s" begin="0s" repeatCount="indefinite"/><animate attributeName="opacity" values="0;0.9;0" dur="2.8s" begin="0s" repeatCount="indefinite"/></rect><rect x="34" y="17" width="1" height="1" fill="#c9cfd8"><animate attributeName="y" values="17;15;13" dur="2.8s" begin="1.4s" repeatCount="indefinite"/><animate attributeName="opacity" values="0;0.7;0" dur="2.8s" begin="1.4s" repeatCount="indefinite"/></rect></svg>